<svg id="visual" viewBox="0 0 900 600" width="900" height="600" xmlns="http://www.w3.org/2000/svg" xmlns:xlink="http://www.w3.org/1999/xlink" version="1.1"><rect x="0" y="0" width="900" height="600" fill="#dae5eb"></rect><defs><linearGradient id="grad1_0" x1="33.3%" y1="0%" x2="100%" y2="100%"><stop offset="20%" stop-color="#dae5eb" stop-opacity="1"></stop><stop offset="80%" stop-color="#dae5eb" stop-opacity="1"></stop></linearGradient></defs><defs><linearGradient id="grad2_0" x1="0%" y1="0%" x2="66.7%" y2="100%"><stop offset="20%" stop-color="#dae5eb" stop-opacity="1"></stop><stop offset="80%" stop-color="#dae5eb" stop-opacity="1"></stop></linearGradient></defs><g transform="translate(900, 0)"><path d="M0 270.4C-24 269.8 -48.1 269.2 -70 261.2C-91.9 253.2 -111.6 238 -128.5 222.6C-145.4 207.2 -159.4 191.7 -176.1 176.1C-192.7 160.4 -211.9 144.6 -214.8 124C-217.6 103.4 -204 77.9 -210.6 56.4C-217.1 34.9 -243.8 17.5 -270.4 0L0 0Z" fill="#1fd860"></path></g><g transform="translate(0, 600)"><path d="M0 -270.4C25.3 -272 50.7 -273.5 70 -261.2C89.3 -248.9 102.7 -222.7 119.5 -207C136.3 -191.3 156.7 -186.1 175.4 -175.4C194 -164.6 211 -148.4 225.2 -130C239.4 -111.6 250.8 -91.1 257.9 -69.1C265 -47.1 267.7 -23.5 270.4 0L0 0Z" fill="#1fd860"></path></g></svg>